{
  "accessors": [
    {
      "bufferView": 2,
      "componentType": 5126,
      "count": 914,
      "max": [
        0.6837645769119263,
        1.4986884593963623,
        0.6799998879432678
      ],
      "min": [
        -0.6799998879432678,
        -1.4124338626861572,
        -0.6804248094558716
      ],
      "type": "VEC3"
    },
    {
      "bufferView": 2,
      "byteOffset": 10968,
      "componentType": 5126,
      "count": 914,
      "max": [
        1.0,
        1.0,
        1.0
      ],
      "min": [
        -1.0,
        -1.0,
        -1.0
      ],
      "type": "VEC3"
    },
    {
      "bufferView": 1,
      "componentType": 5126,
      "count": 914,
      "max": [
        1.0,
        1.0
      ],
      "min": [
        3.91155481338501e-07,
        0.01000000536441803
      ],
      "type": "VEC2"
    },
    {
      "bufferView": 0,
      "componentType": 5125,
      "count": 3108,
      "type": "SCALAR"
    },
    {
      "bufferView": 2,
      "byteOffset": 21936,
      "componentType": 5126,
      "count": 4610,
      "max": [
        0.6837645769119263,
        -0.6153004765510559,
        0.6795749664306641
      ],
      "min": [
        -0.6762351989746094,
        -1.4124338626861572,
        -0.6804248094558716
      ],
      "type": "VEC3"
    },
    {
      "bufferView": 2,
      "byteOffset": 77256,
      "componentType": 5126,
      "count": 4610,
      "max": [
        1.0,
        1.0,
        1.0
      ],
      "min": [
        -1.0,
        -1.0,
        -1.0
      ],
      "type": "VEC3"
    },
    {
      "bufferView": 1,
      "byteOffset": 7312,
      "componentType": 5126,
      "count": 4610,
      "max": [
        1.0,
        0.5
      ],
      "min": [
        0.0,
        0.0
      ],
      "type": "VEC2"
    },
    {
      "bufferView": 0,
      "byteOffset": 12432,
      "componentType": 5125,
      "count": 9162,
      "type": "SCALAR"
    },
    {
      "bufferView": 2,
      "byteOffset": 132576,
      "componentType": 5126,
      "count": 19874,
      "max": [
        0.6620516180992126,
        1.630143404006958,
        0.6571065187454224
      ],
      "min": [
        -0.6392500996589661,
        -1.4436218738555908,
        -0.6390604972839355
      ],
      "type": "VEC3"
    },
    {
      "bufferView": 2,
      "byteOffset": 371064,
      "componentType": 5126,
      "count": 19874,
      "max": [
        1.0,
        1.0,
        1.0
      ],
      "min": [
        -1.0,
        -1.0,
        -1.0
      ],
      "type": "VEC3"
    },
    {
      "bufferView": 1,
      "byteOffset": 44192,
      "componentType": 5126,
      "count": 19874,
      "max": [
        1.0,
        1.0
      ],
      "min": [
        0.0,
        0.0
      ],
      "type": "VEC2"
    },
    {
      "bufferView": 0,
      "byteOffset": 49080,
      "componentType": 5125,
      "count": 53628,
      "type": "SCALAR"
    }
  ],
  "asset": {
    "extras": {
      "author": "Taenshi (https://sketchfab.com/taenshi)",
      "license": "CC-BY-4.0 (http://creativecommons.org/licenses/by/4.0/)",
      "source": "https://sketchfab.com/3d-models/unique-tarot-coin-7994acbbd9304fd5bde83405a1284444",
      "title": "Unique Tarot Coin"
    },
    "generator": "Sketchfab-12.73.0",
    "version": "2.0"
  },
  "bufferViews": [
    {
      "buffer": 0,
      "byteLength": 263592,
      "name": "floatBufferViews",
      "target": 34963
    },
    {
      "buffer": 0,
      "byteLength": 203184,
      "byteOffset": 263592,
      "byteStride": 8,
      "name": "floatBufferViews",
      "target": 34962
    },
    {
      "buffer": 0,
      "byteLength": 609552,
      "byteOffset": 466776,
      "byteStride": 12,
      "name": "floatBufferViews",
      "target": 34962
    }
  ],
  "buffers": [
    {
      "byteLength": 1076328,
      "uri": "scene.bin"
    }
  ],
  "materials": [
    {
      "doubleSided": true,
      "name": "Coin",
      "pbrMetallicRoughness": {
        "baseColorFactor": [
          0.8,
          0.454234,
          0.0962824,
          1.0
        ],
        "metallicFactor": 0.323636,
        "roughnessFactor": 0.0550459
      }
    },
    {
      "doubleSided": true,
      "name": "material",
      "pbrMetallicRoughness": {
        "baseColorFactor": [
          0.8,
          0.454234,
          0.096282,
          1.0
        ],
        "metallicFactor": 0.559633,
        "roughnessFactor": 0.0477064
      }
    },
    {
      "doubleSided": true,
      "name": "Coin_2",
      "pbrMetallicRoughness": {
        "baseColorFactor": [
          0.23177,
          0.23177,
          0.23177,
          1.0
        ],
        "metallicFactor": 0.545413,
        "roughnessFactor": 0.0706422
      }
    }
  ],
  "meshes": [
    {
      "name": "Object_0",
      "primitives": [
        {
          "attributes": {
            "NORMAL": 1,
            "POSITION": 0,
            "TEXCOORD_0": 2
          },
          "indices": 3,
          "material": 0,
          "mode": 4
        }
      ]
    },
    {
      "name": "Object_1",
      "primitives": [
        {
          "attributes": {
            "NORMAL": 5,
            "POSITION": 4,
            "TEXCOORD_0": 6
          },
          "indices": 7,
          "material": 1,
          "mode": 4
        }
      ]
    },
    {
      "name": "Object_2",
      "primitives": [
        {
          "attributes": {
            "NORMAL": 9,
            "POSITION": 8,
            "TEXCOORD_0": 10
          },
          "indices": 11,
          "material": 2,
          "mode": 4
        }
      ]
    }
  ],
  "nodes": [
    {
      "children": [
        1
      ],
      "matrix": [
        1.0,
        0.0,
        0.0,
        0.0,
        0.0,
        2.220446049250313e-16,
        -1.0,
        0.0,
        0.0,
        1.0,
        2.220446049250313e-16,
        0.0,
        0.0,
        0.0,
        0.0,
        1.0
      ],
      "name": "Sketchfab_model"
    },
    {
      "children": [
        2
      ],
      "name": "root"
    },
    {
      "children": [
        3
      ],
      "matrix": [
        1.0,
        0.0,
        0.0,
        0.0,
        0.0,
        2.220446049250313e-16,
        1.0,
        0.0,
        0.0,
        -1.0,
        2.220446049250313e-16,
        0.0,
        0.0,
        0.0,
        0.0,
        1.0
      ],
      "name": "GLTF_SceneRootNode"
    },
    {
      "children": [
        4,
        5,
        6
      ],
      "matrix": [
        0.9893512723505796,
        -0.03416072658903009,
        0.1414818174084528,
        0.0,
        0.004890692498869667,
        0.007305213051755241,
        -0.03243569770840633,
        -0.0,
        -0.0022160419363187744,
        -0.9754894105699391,
        -0.22003522223509897,
        0.0,
        -0.11685390025377274,
        0.8596166372299194,
        -0.08720076084136963,
        1.0
      ],
      "name": "Cylinder_0"
    },
    {
      "mesh": 0,
      "name": "Object_4"
    },
    {
      "mesh": 1,
      "name": "Object_5"
    },
    {
      "mesh": 2,
      "name": "Object_6"
    }
  ],
  "scene": 0,
  "scenes": [
    {
      "name": "Sketchfab_Scene",
      "nodes": [
        0
      ]
    }
  ]
}
